<mxfile host="app.diagrams.net" modified="2022-06-05T03:43:29.858Z" agent="5.0 (Windows NT 10.0; Win64; x64) AppleWebKit/537.36 (KHTML, like Gecko) Chrome/102.0.5005.63 Safari/537.36" etag="ZpMKKfrOct2DJ6MQOvmK" version="19.0.0" type="github">
  <diagram id="eilWlHXjyO4v5beGfHmc" name="Page-1">
    <mxGraphModel dx="1422" dy="800" grid="1" gridSize="10" guides="1" tooltips="1" connect="1" arrows="1" fold="1" page="1" pageScale="1" pageWidth="850" pageHeight="1100" math="0" shadow="0">
      <root>
        <mxCell id="0" />
        <mxCell id="1" parent="0" />
        <mxCell id="FbcHEPfDJx9Mswik84jx-1" value="Message Broker" style="rounded=0;whiteSpace=wrap;html=1;" vertex="1" parent="1">
          <mxGeometry x="350" y="280" width="120" height="40" as="geometry" />
        </mxCell>
        <mxCell id="FbcHEPfDJx9Mswik84jx-21" style="edgeStyle=orthogonalEdgeStyle;rounded=0;orthogonalLoop=1;jettySize=auto;html=1;exitX=1;exitY=0.5;exitDx=0;exitDy=0;entryX=0.75;entryY=0;entryDx=0;entryDy=0;fontSize=10;startArrow=none;startFill=0;endArrow=block;endFill=1;strokeColor=#EB831C;strokeWidth=1;shape=link;" edge="1" parent="1" source="FbcHEPfDJx9Mswik84jx-2" target="FbcHEPfDJx9Mswik84jx-5">
          <mxGeometry relative="1" as="geometry" />
        </mxCell>
        <mxCell id="FbcHEPfDJx9Mswik84jx-2" value="LT SPA" style="rounded=0;whiteSpace=wrap;html=1;" vertex="1" parent="1">
          <mxGeometry x="410" y="160" width="120" height="40" as="geometry" />
        </mxCell>
        <mxCell id="FbcHEPfDJx9Mswik84jx-15" style="edgeStyle=orthogonalEdgeStyle;shape=link;rounded=0;orthogonalLoop=1;jettySize=auto;html=1;exitX=0.5;exitY=0;exitDx=0;exitDy=0;entryX=0.5;entryY=1;entryDx=0;entryDy=0;fontSize=10;startArrow=none;startFill=0;endArrow=block;endFill=0;strokeColor=#0F87D6;strokeWidth=1;" edge="1" parent="1" source="FbcHEPfDJx9Mswik84jx-3" target="FbcHEPfDJx9Mswik84jx-1">
          <mxGeometry relative="1" as="geometry" />
        </mxCell>
        <mxCell id="FbcHEPfDJx9Mswik84jx-20" style="edgeStyle=orthogonalEdgeStyle;rounded=0;orthogonalLoop=1;jettySize=auto;html=1;exitX=0.5;exitY=1;exitDx=0;exitDy=0;fontSize=10;startArrow=none;startFill=0;endArrow=block;endFill=1;strokeColor=#000000;strokeWidth=1;" edge="1" parent="1" source="FbcHEPfDJx9Mswik84jx-3" target="FbcHEPfDJx9Mswik84jx-19">
          <mxGeometry relative="1" as="geometry" />
        </mxCell>
        <mxCell id="FbcHEPfDJx9Mswik84jx-3" value="LT Core API" style="shape=parallelogram;perimeter=parallelogramPerimeter;whiteSpace=wrap;html=1;fixedSize=1;size=10;" vertex="1" parent="1">
          <mxGeometry x="200" y="379" width="120" height="40" as="geometry" />
        </mxCell>
        <mxCell id="FbcHEPfDJx9Mswik84jx-16" style="edgeStyle=orthogonalEdgeStyle;shape=link;rounded=0;orthogonalLoop=1;jettySize=auto;html=1;exitX=0.5;exitY=0;exitDx=0;exitDy=0;fontSize=10;startArrow=none;startFill=0;endArrow=block;endFill=0;strokeColor=#0F87D6;strokeWidth=1;" edge="1" parent="1" source="FbcHEPfDJx9Mswik84jx-4">
          <mxGeometry relative="1" as="geometry">
            <mxPoint x="410" y="320" as="targetPoint" />
          </mxGeometry>
        </mxCell>
        <mxCell id="FbcHEPfDJx9Mswik84jx-4" value="LT Graph API" style="shape=parallelogram;perimeter=parallelogramPerimeter;whiteSpace=wrap;html=1;fixedSize=1;size=10;" vertex="1" parent="1">
          <mxGeometry x="340" y="379" width="120" height="40" as="geometry" />
        </mxCell>
        <mxCell id="FbcHEPfDJx9Mswik84jx-17" style="edgeStyle=orthogonalEdgeStyle;shape=link;rounded=0;orthogonalLoop=1;jettySize=auto;html=1;exitX=0.5;exitY=0;exitDx=0;exitDy=0;entryX=0.5;entryY=1;entryDx=0;entryDy=0;fontSize=10;startArrow=none;startFill=0;endArrow=block;endFill=0;strokeColor=#0F87D6;strokeWidth=1;" edge="1" parent="1" source="FbcHEPfDJx9Mswik84jx-5" target="FbcHEPfDJx9Mswik84jx-1">
          <mxGeometry relative="1" as="geometry" />
        </mxCell>
        <mxCell id="FbcHEPfDJx9Mswik84jx-5" value="LT Hub API&lt;br&gt;&lt;font style=&quot;font-size: 10px;&quot;&gt;(SignalR)&lt;/font&gt;" style="shape=parallelogram;perimeter=parallelogramPerimeter;whiteSpace=wrap;html=1;fixedSize=1;size=10;" vertex="1" parent="1">
          <mxGeometry x="480" y="379" width="120" height="40" as="geometry" />
        </mxCell>
        <mxCell id="FbcHEPfDJx9Mswik84jx-9" style="edgeStyle=orthogonalEdgeStyle;rounded=0;orthogonalLoop=1;jettySize=auto;html=1;exitX=0.5;exitY=1;exitDx=0;exitDy=0;fontSize=10;startArrow=classic;startFill=1;" edge="1" parent="1" source="FbcHEPfDJx9Mswik84jx-6" target="FbcHEPfDJx9Mswik84jx-8">
          <mxGeometry relative="1" as="geometry">
            <Array as="points">
              <mxPoint x="330" y="220" />
              <mxPoint x="130" y="220" />
            </Array>
          </mxGeometry>
        </mxCell>
        <mxCell id="FbcHEPfDJx9Mswik84jx-11" style="edgeStyle=orthogonalEdgeStyle;rounded=0;orthogonalLoop=1;jettySize=auto;html=1;exitX=0.75;exitY=1;exitDx=0;exitDy=0;entryX=0.5;entryY=0;entryDx=0;entryDy=0;fontSize=10;startArrow=none;startFill=0;endArrow=block;endFill=0;strokeColor=#62874D;strokeWidth=2;fillColor=#d5e8d4;" edge="1" parent="1" source="FbcHEPfDJx9Mswik84jx-6" target="FbcHEPfDJx9Mswik84jx-1">
          <mxGeometry relative="1" as="geometry" />
        </mxCell>
        <mxCell id="FbcHEPfDJx9Mswik84jx-6" value="&lt;font style=&quot;&quot;&gt;KeyCloak Server&lt;/font&gt;" style="rounded=0;whiteSpace=wrap;html=1;" vertex="1" parent="1">
          <mxGeometry x="270" y="160" width="120" height="40" as="geometry" />
        </mxCell>
        <mxCell id="FbcHEPfDJx9Mswik84jx-8" value="&lt;span style=&quot;font-size: 12px;&quot;&gt;KeyCloak DB&lt;/span&gt;" style="shape=cylinder3;whiteSpace=wrap;html=1;boundedLbl=1;backgroundOutline=1;size=15;fontSize=10;" vertex="1" parent="1">
          <mxGeometry x="90" y="560" width="80" height="60" as="geometry" />
        </mxCell>
        <mxCell id="FbcHEPfDJx9Mswik84jx-19" value="&lt;span style=&quot;font-size: 12px;&quot;&gt;LT Core DB&lt;/span&gt;" style="shape=cylinder3;whiteSpace=wrap;html=1;boundedLbl=1;backgroundOutline=1;size=15;fontSize=10;" vertex="1" parent="1">
          <mxGeometry x="220" y="560" width="80" height="60" as="geometry" />
        </mxCell>
        <mxCell id="FbcHEPfDJx9Mswik84jx-22" value="&lt;font style=&quot;font-size: 14px;&quot;&gt;&lt;b style=&quot;font-size: 14px;&quot;&gt;Legend&lt;/b&gt;&lt;/font&gt;" style="text;html=1;strokeColor=none;fillColor=none;align=center;verticalAlign=middle;whiteSpace=wrap;rounded=0;fontSize=14;" vertex="1" parent="1">
          <mxGeometry x="770" y="24" width="50" height="20" as="geometry" />
        </mxCell>
        <mxCell id="FbcHEPfDJx9Mswik84jx-23" value="AMQP Channel" style="text;html=1;strokeColor=none;fillColor=none;align=center;verticalAlign=middle;whiteSpace=wrap;rounded=0;fontSize=12;" vertex="1" parent="1">
          <mxGeometry x="670" y="54" width="90" height="20" as="geometry" />
        </mxCell>
        <mxCell id="FbcHEPfDJx9Mswik84jx-24" value="WebSockets Channel" style="text;html=1;strokeColor=none;fillColor=none;align=center;verticalAlign=middle;whiteSpace=wrap;rounded=0;fontSize=12;" vertex="1" parent="1">
          <mxGeometry x="640" y="74" width="120" height="20" as="geometry" />
        </mxCell>
        <mxCell id="FbcHEPfDJx9Mswik84jx-25" style="edgeStyle=orthogonalEdgeStyle;shape=link;rounded=0;orthogonalLoop=1;jettySize=auto;html=1;fontSize=10;startArrow=none;startFill=0;endArrow=block;endFill=0;strokeColor=#0F87D6;strokeWidth=1;" edge="1" parent="1">
          <mxGeometry relative="1" as="geometry">
            <mxPoint x="780" y="63.5" as="sourcePoint" />
            <mxPoint x="820" y="63.5" as="targetPoint" />
          </mxGeometry>
        </mxCell>
        <mxCell id="FbcHEPfDJx9Mswik84jx-26" style="edgeStyle=orthogonalEdgeStyle;rounded=0;orthogonalLoop=1;jettySize=auto;html=1;exitX=1;exitY=0.5;exitDx=0;exitDy=0;fontSize=10;startArrow=none;startFill=0;endArrow=block;endFill=1;strokeColor=#EB831C;strokeWidth=1;shape=link;" edge="1" parent="1">
          <mxGeometry relative="1" as="geometry">
            <mxPoint x="780" y="84" as="sourcePoint" />
            <mxPoint x="820" y="84" as="targetPoint" />
          </mxGeometry>
        </mxCell>
      </root>
    </mxGraphModel>
  </diagram>
</mxfile>
